<svg version="1.1" id="Layer_1" xmlns="http://www.w3.org/2000/svg" xmlns:xlink="http://www.w3.org/1999/xlink" x="0px" y="0px"
	 width="100%" viewBox="0 0 930 186" enable-background="new 0 0 930 186" xml:space="preserve">
<path fill="#FFFFFF" opacity="1.000000" stroke="none" 
	d="
M667.000000,187.000000 
	C444.716339,187.000000 222.932678,187.000000 1.074514,187.000000 
	C1.074514,125.063637 1.074514,63.127159 1.074514,1.095340 
	C310.999969,1.095340 621.000000,1.095340 930.970337,1.095340 
	C930.970337,63.067307 930.970337,125.033661 930.970337,187.000000 
	C843.127136,187.000000 755.313538,187.000000 667.000000,187.000000 
M133.500000,151.769409 
	C147.163879,151.769180 160.828156,151.831512 174.491486,151.743988 
	C182.030472,151.695694 185.092758,148.577347 185.100388,141.101471 
	C185.130463,111.607452 185.129593,82.113373 185.100189,52.619347 
	C185.092148,44.538761 182.441162,42.004852 174.202805,41.994953 
	C163.038406,41.981537 151.873962,42.002247 140.709579,41.980541 
	C138.952576,41.977127 137.195862,41.827198 135.112228,41.729725 
	C135.112228,36.205601 135.017960,31.225941 135.140579,26.251625 
	C135.248215,21.885418 133.511490,19.878283 128.928360,19.937111 
	C116.432930,20.097502 103.932480,20.108328 91.437439,19.933691 
	C86.572510,19.865698 84.902100,22.053059 85.058090,26.611910 
	C85.227219,31.554655 85.096428,36.507664 85.096428,41.991623 
	C71.889290,41.991623 59.271263,41.988461 46.653233,41.992680 
	C37.476223,41.995750 35.000446,44.401230 34.996498,53.418144 
	C34.983871,82.245659 34.983635,111.073181 34.996422,139.900696 
	C35.000439,148.958679 37.838356,151.760345 47.017246,151.764572 
	C75.511490,151.777710 104.005745,151.769119 133.500000,151.769409 
M689.801758,101.735146 
	C690.751099,112.416420 695.670776,120.941643 704.917480,126.189262 
	C715.769409,132.347809 726.973755,133.217972 736.873779,125.558044 
	C738.396851,127.170624 739.517090,129.430450 740.793030,129.522018 
	C746.373657,129.922592 751.999451,129.694443 757.790344,129.694443 
	C757.790344,99.856598 757.790344,70.652000 757.790344,41.160797 
	C751.273193,41.160797 745.045532,41.160797 738.209229,41.160797 
	C738.209229,50.426041 738.209229,59.453434 738.209229,69.332253 
	C731.510193,64.915726 725.218384,62.258446 717.890869,63.416882 
	C698.871765,66.423729 687.501404,81.457489 689.801758,101.735146 
M280.697449,45.609509 
	C265.034332,38.644794 248.605453,43.357212 232.419998,41.669468 
	C232.419998,71.423080 232.419998,100.392624 232.419998,129.399658 
	C239.095108,129.399658 245.343002,129.399658 252.156372,129.399658 
	C252.156372,119.859154 252.156372,110.628433 252.156372,100.885933 
	C256.670654,100.885933 260.632660,101.062881 264.573700,100.850754 
	C274.104889,100.337708 282.991577,98.087494 289.614624,90.497971 
	C299.828491,78.793701 298.273773,55.024353 280.697449,45.609509 
M482.012970,97.580017 
	C482.012970,108.162628 482.012970,118.745239 482.012970,129.377869 
	C489.034821,129.377869 495.276154,129.377869 501.948822,129.377869 
	C501.948822,120.563789 502.079010,112.093666 501.907776,103.629631 
	C501.770050,96.822334 501.905426,89.916733 500.799500,83.240318 
	C498.166290,67.344139 482.599182,58.903057 467.957092,65.363617 
	C464.050446,67.087349 460.867157,70.450424 456.823181,73.453384 
	C456.823181,62.507607 456.823181,51.813038 456.823181,41.294044 
	C449.966431,41.294044 443.734894,41.294044 437.548462,41.294044 
	C437.548462,70.925529 437.548462,100.133087 437.548462,129.354584 
	C444.210052,129.354584 450.451874,129.354584 457.049896,129.354584 
	C457.049896,118.168839 457.032166,107.355934 457.056366,96.543121 
	C457.071564,89.738647 462.020264,83.191422 468.528107,81.269936 
	C475.717987,79.147079 480.314423,81.836136 481.602325,89.147697 
	C482.031433,91.583771 481.891846,94.120018 482.012970,97.580017 
M322.271301,127.365608 
	C333.163605,132.171661 343.732025,132.774567 353.520355,124.257965 
	C353.817413,126.402550 354.018280,127.852654 354.275452,129.709167 
	C359.929169,129.709167 365.410187,129.867645 370.865601,129.564682 
	C371.860565,129.509430 373.560638,127.578560 373.569641,126.502106 
	C373.734009,106.851425 373.732788,87.198662 373.578979,67.547813 
	C373.570007,66.403656 372.016724,64.337997 371.095154,64.287476 
	C365.499329,63.980686 359.878265,64.134499 354.355988,64.134499 
	C353.939453,66.107224 353.648285,67.486069 353.335175,68.969063 
	C344.158508,63.867985 339.820618,62.598583 334.325104,63.313282 
	C318.871887,65.322998 307.634247,74.913223 305.376343,89.394608 
	C303.110962,103.923660 306.356354,118.649620 322.271301,127.365608 
M815.596985,65.784950 
	C798.736816,58.424183 779.403320,67.767532 772.215332,82.218529 
	C764.640442,97.447403 769.777222,115.786179 783.851624,124.914825 
	C798.318970,134.298340 821.301819,132.273041 830.818909,120.506126 
	C828.412170,118.284004 825.764893,116.233101 823.616577,113.750481 
	C821.262085,111.029587 819.065552,111.421234 815.786499,112.051285 
	C810.222168,113.120430 804.323120,113.411873 798.687500,112.833389 
	C794.359192,112.389091 791.199768,109.147232 789.532532,103.824631 
	C804.977234,103.824631 819.684448,103.824631 834.256409,103.824631 
	C837.476013,86.761673 830.618774,72.633095 815.596985,65.784950 
M659.362000,116.480133 
	C659.361267,129.734589 659.361267,129.734604 672.621704,129.730392 
	C673.620300,129.730072 674.627563,129.644592 675.615967,129.744751 
	C678.622742,130.049393 679.781372,128.794205 679.707458,125.739433 
	C679.394043,112.773552 679.587036,99.784882 678.893860,86.842087 
	C678.348511,76.659973 673.564087,68.623642 663.596436,64.843811 
	C653.425659,60.986961 644.384705,63.630047 636.638794,72.124306 
	C636.249878,72.550835 635.799805,72.921608 635.026245,73.649445 
	C634.854065,70.134865 634.712341,67.242081 634.578857,64.516724 
	C627.688354,64.516724 621.452576,64.516724 615.221069,64.516724 
	C615.221069,86.331680 615.221069,107.737206 615.221069,129.729614 
	C620.451660,129.729614 625.410645,129.557266 630.350708,129.787842 
	C633.875854,129.952362 634.968140,128.634033 634.900574,125.170578 
	C634.712402,115.520798 634.816833,105.864906 634.841858,96.211517 
	C634.859680,89.360367 639.365601,83.379990 645.950562,81.373421 
	C653.758362,78.994240 658.844299,82.363327 659.143005,90.525635 
	C659.447205,98.837212 659.307861,107.165024 659.362000,116.480133 
M515.007202,86.500000 
	C515.007202,100.750153 515.007202,115.000305 515.007202,129.721802 
	C518.325989,129.721802 520.956665,129.721756 523.587280,129.721802 
	C535.933533,129.721970 535.933594,129.721985 535.933594,117.569237 
	C535.933655,109.819130 535.933594,102.069016 535.933594,93.907822 
	C545.958923,93.907822 555.217834,93.907822 564.695862,93.907822 
	C564.695862,88.093674 564.695862,82.715546 564.695862,76.704376 
	C554.993958,76.704376 545.603027,76.704376 536.380005,76.704376 
	C536.380005,70.839294 536.380005,65.618813 536.380005,59.977516 
	C548.248718,59.977516 559.675964,59.977516 571.348450,59.977516 
	C571.348450,53.803089 571.348450,48.076073 571.348450,42.251526 
	C552.467346,42.251526 533.929077,42.251526 515.007202,42.251526 
	C515.007202,56.914772 515.007202,71.207382 515.007202,86.500000 
M383.386810,67.011749 
	C383.380493,68.511581 383.369324,70.011406 383.368683,71.511238 
	C383.365143,80.128258 383.366455,80.123741 391.655914,80.985741 
	C391.933533,81.014610 392.181061,81.332420 392.888458,81.827721 
	C392.888458,83.326355 392.881195,85.128777 392.889679,86.931129 
	C392.928802,95.263382 392.740723,103.605148 393.083496,111.924995 
	C393.387085,119.293983 395.720276,126.631996 403.427856,128.524765 
	C409.961029,130.129120 417.168671,129.111221 424.070496,128.946198 
	C425.024689,128.923386 426.675232,127.178268 426.740814,126.149963 
	C427.033508,121.560631 426.868011,116.942078 426.868011,112.165894 
	C423.609863,112.476624 420.890015,113.268539 418.406982,112.801476 
	C416.478424,112.438705 413.377899,110.574089 413.316101,109.258736 
	C412.875183,99.872421 413.080841,90.455750 413.080841,80.730270 
	C416.852509,80.730270 420.032013,80.961601 423.147736,80.616859 
	C424.400879,80.478203 426.461884,79.148041 426.531372,78.236374 
	C426.880035,73.662102 426.691193,69.046860 426.691193,63.913342 
	C421.703369,63.913342 417.453918,63.913342 412.732422,63.913342 
	C412.732422,58.770195 412.732422,54.169334 412.732422,49.399689 
	C405.873962,49.399689 399.513947,49.399689 392.710449,49.399689 
	C392.710449,54.411896 392.710449,59.019352 392.710449,62.903801 
	C389.216888,64.122795 386.341492,65.126091 383.386810,67.011749 
M862.189819,129.729675 
	C864.962708,130.070358 866.007019,128.943863 865.944397,126.074074 
	C865.784790,118.759903 865.944458,111.439430 865.880066,104.122330 
	C865.823853,97.730865 868.388733,92.581276 872.903870,88.208382 
	C878.454346,82.832741 885.424988,82.104973 892.998230,82.214218 
	C892.998230,78.176720 892.998901,74.378883 892.998108,70.581047 
	C892.996460,62.903984 891.994568,62.009872 884.360718,63.347618 
	C882.252197,63.717117 879.818420,64.045036 878.241821,65.289101 
	C873.845642,68.758125 869.820801,72.697578 865.572876,76.520035 
	C865.572876,72.811104 865.572876,68.599030 865.572876,64.495529 
	C858.773315,64.495529 852.542480,64.495529 846.216553,64.495529 
	C846.216553,86.280663 846.216553,107.677910 846.216553,129.730042 
	C851.383789,129.730042 856.321228,129.730042 862.189819,129.729675 
M582.105713,84.500214 
	C582.105713,99.405991 582.105713,114.311760 582.105713,129.433578 
	C589.011108,129.433578 595.241150,129.433578 601.698975,129.433578 
	C601.698975,107.622375 601.698975,86.112320 601.698975,64.401451 
	C595.143616,64.401451 588.917664,64.401451 582.105957,64.401451 
	C582.105957,70.958214 582.105957,77.229347 582.105713,84.500214 
M587.680542,57.745735 
	C592.284241,57.745735 596.887878,57.745735 601.598022,57.745735 
	C601.598022,51.788788 601.598022,46.449474 601.598022,41.266525 
	C594.933594,41.266525 588.713501,41.266525 582.301514,41.266525 
	C582.301514,46.765648 582.301514,51.862877 582.301514,57.397652 
	C583.869629,57.520500 585.303528,57.632828 587.680542,57.745735 
z"/>
<path fill="#72B8FD" opacity="1.000000" stroke="none" 
	d="
M133.000000,151.769196 
	C104.005745,151.769119 75.511490,151.777710 47.017246,151.764572 
	C37.838356,151.760345 35.000439,148.958679 34.996422,139.900696 
	C34.983635,111.073181 34.983871,82.245659 34.996498,53.418144 
	C35.000446,44.401230 37.476223,41.995750 46.653233,41.992680 
	C59.271263,41.988461 71.889290,41.991623 85.096428,41.991623 
	C85.096428,36.507664 85.227219,31.554655 85.058090,26.611910 
	C84.902100,22.053059 86.572510,19.865698 91.437439,19.933691 
	C103.932480,20.108328 116.432930,20.097502 128.928360,19.937111 
	C133.511490,19.878283 135.248215,21.885418 135.140579,26.251625 
	C135.017960,31.225941 135.112228,36.205601 135.112228,41.729725 
	C137.195862,41.827198 138.952576,41.977127 140.709579,41.980541 
	C151.873962,42.002247 163.038406,41.981537 174.202805,41.994953 
	C182.441162,42.004852 185.092148,44.538761 185.100189,52.619347 
	C185.129593,82.113373 185.130463,111.607452 185.100388,141.101471 
	C185.092758,148.577347 182.030472,151.695694 174.491486,151.743988 
	C160.828156,151.831512 147.163879,151.769180 133.000000,151.769196 
M55.511902,50.903141 
	C51.566528,50.903141 47.621155,50.903141 43.112774,50.903141 
	C43.112774,60.108696 43.658752,68.763840 42.951679,77.315369 
	C42.307854,85.101959 44.969082,89.464806 51.837685,93.412819 
	C58.629253,97.316551 65.084900,99.229172 72.866821,99.122910 
	C98.329147,98.775246 123.819984,98.390854 149.256668,99.270126 
	C160.401764,99.655373 167.368637,93.037209 175.653107,88.207214 
	C176.242020,87.863869 176.794495,86.884308 176.798630,86.197174 
	C176.868530,74.601738 176.848633,63.005760 176.848633,50.902981 
	C136.323013,50.902981 96.416008,50.902981 55.511902,50.903141 
M174.786362,99.343933 
	C172.656784,100.641411 170.392197,101.762688 168.424103,103.270889 
	C163.415695,107.108955 157.875076,108.217476 151.616776,108.000595 
	C140.981277,107.632027 130.323715,107.886612 119.675514,107.911766 
	C117.927788,107.915894 116.180466,108.086006 114.436050,108.179245 
	C114.436050,119.995293 114.436050,131.222382 114.436050,142.595764 
	C135.304459,142.595764 155.843094,142.595764 176.844070,142.595764 
	C176.844070,128.039932 176.849533,113.775703 176.783920,99.511803 
	C176.783081,99.327393 175.877426,99.147156 174.786362,99.343933 
M49.562088,101.924156 
	C47.590290,100.796646 45.618492,99.669136 43.459450,98.434555 
	C43.459450,113.428833 43.459450,127.960052 43.459450,142.571960 
	C64.369286,142.571960 84.927269,142.571960 105.570618,142.571960 
	C105.570618,130.889145 105.570618,119.529633 105.570618,107.900482 
	C93.667503,107.900482 82.173149,107.558540 70.711235,108.020798 
	C63.080814,108.328529 56.197124,107.200233 49.562088,101.924156 
M125.120438,41.942459 
	C125.900864,37.758976 126.681290,33.575493 127.483414,29.275702 
	C115.409256,29.275702 104.822960,29.275702 94.057907,29.275702 
	C94.057907,33.565239 94.057907,37.478600 94.057907,41.252201 
	C94.629341,41.548481 94.915413,41.825462 95.203445,41.827515 
	C104.865639,41.896324 114.528023,41.938931 125.120438,41.942459 
z"/>
<path fill="#7299D9" opacity="1.000000" stroke="none" 
	d="
M689.713379,101.308952 
	C687.501404,81.457489 698.871765,66.423729 717.890869,63.416882 
	C725.218384,62.258446 731.510193,64.915726 738.209229,69.332253 
	C738.209229,59.453434 738.209229,50.426041 738.209229,41.160797 
	C745.045532,41.160797 751.273193,41.160797 757.790344,41.160797 
	C757.790344,70.652000 757.790344,99.856598 757.790344,129.694443 
	C751.999451,129.694443 746.373657,129.922592 740.793030,129.522018 
	C739.517090,129.430450 738.396851,127.170624 736.873779,125.558044 
	C726.973755,133.217972 715.769409,132.347809 704.917480,126.189262 
	C695.670776,120.941643 690.751099,112.416420 689.713379,101.308952 
M710.998291,87.791496 
	C708.050964,92.912605 708.122681,98.325859 709.986389,103.657295 
	C713.542297,113.829765 727.634460,116.603104 734.967102,108.711014 
	C740.850403,102.378876 740.333252,90.228149 734.266296,84.136909 
	C729.743347,79.595810 716.488708,78.717255 710.998291,87.791496 
z"/>
<path fill="#7199D8" opacity="1.000000" stroke="none" 
	d="
M281.021667,45.796761 
	C298.273773,55.024353 299.828491,78.793701 289.614624,90.497971 
	C282.991577,98.087494 274.104889,100.337708 264.573700,100.850754 
	C260.632660,101.062881 256.670654,100.885933 252.156372,100.885933 
	C252.156372,110.628433 252.156372,119.859154 252.156372,129.399658 
	C245.343002,129.399658 239.095108,129.399658 232.419998,129.399658 
	C232.419998,100.392624 232.419998,71.423080 232.419998,41.669468 
	C248.605453,43.357212 265.034332,38.644794 281.021667,45.796761 
M254.036636,83.622597 
	C258.649200,83.381592 263.339630,83.580994 267.853760,82.783180 
	C272.985168,81.876266 275.772064,77.687477 275.871368,72.252998 
	C275.970520,66.828964 273.282806,62.230686 268.442047,61.307026 
	C263.222076,60.311008 257.818573,60.276611 252.088379,59.788017 
	C252.088379,64.401115 251.947067,67.869972 252.125320,71.322334 
	C252.332809,75.340378 252.820053,79.343964 254.036636,83.622597 
z"/>
<path fill="#739AD9" opacity="1.000000" stroke="none" 
	d="
M482.012604,97.095245 
	C481.891846,94.120018 482.031433,91.583771 481.602325,89.147697 
	C480.314423,81.836136 475.717987,79.147079 468.528107,81.269936 
	C462.020264,83.191422 457.071564,89.738647 457.056366,96.543121 
	C457.032166,107.355934 457.049896,118.168839 457.049896,129.354584 
	C450.451874,129.354584 444.210052,129.354584 437.548462,129.354584 
	C437.548462,100.133087 437.548462,70.925529 437.548462,41.294044 
	C443.734894,41.294044 449.966431,41.294044 456.823181,41.294044 
	C456.823181,51.813038 456.823181,62.507607 456.823181,73.453384 
	C460.867157,70.450424 464.050446,67.087349 467.957092,65.363617 
	C482.599182,58.903057 498.166290,67.344139 500.799500,83.240318 
	C501.905426,89.916733 501.770050,96.822334 501.907776,103.629631 
	C502.079010,112.093666 501.948822,120.563789 501.948822,129.377869 
	C495.276154,129.377869 489.034821,129.377869 482.012970,129.377869 
	C482.012970,118.745239 482.012970,108.162628 482.012604,97.095245 
z"/>
<path fill="#7299D9" opacity="1.000000" stroke="none" 
	d="
M321.927490,127.208878 
	C306.356354,118.649620 303.110962,103.923660 305.376343,89.394608 
	C307.634247,74.913223 318.871887,65.322998 334.325104,63.313282 
	C339.820618,62.598583 344.158508,63.867985 353.335175,68.969063 
	C353.648285,67.486069 353.939453,66.107224 354.355988,64.134499 
	C359.878265,64.134499 365.499329,63.980686 371.095154,64.287476 
	C372.016724,64.337997 373.570007,66.403656 373.578979,67.547813 
	C373.732788,87.198662 373.734009,106.851425 373.569641,126.502106 
	C373.560638,127.578560 371.860565,129.509430 370.865601,129.564682 
	C365.410187,129.867645 359.929169,129.709167 354.275452,129.709167 
	C354.018280,127.852654 353.817413,126.402550 353.520355,124.257965 
	C343.732025,132.774567 333.163605,132.171661 321.927490,127.208878 
M328.486511,84.961754 
	C323.280670,91.156509 322.446228,99.833130 326.442780,106.213310 
	C329.999298,111.891029 337.047821,114.498665 343.893341,112.635765 
	C349.883514,111.005638 353.165558,106.801308 353.964417,100.916862 
	C354.913879,93.923035 354.404663,87.130203 347.651031,82.748192 
	C342.468750,79.385712 334.871368,80.154884 328.486511,84.961754 
z"/>
<path fill="#7299D9" opacity="1.000000" stroke="none" 
	d="
M815.963989,65.902802 
	C830.618774,72.633095 837.476013,86.761673 834.256409,103.824631 
	C819.684448,103.824631 804.977234,103.824631 789.532532,103.824631 
	C791.199768,109.147232 794.359192,112.389091 798.687500,112.833389 
	C804.323120,113.411873 810.222168,113.120430 815.786499,112.051285 
	C819.065552,111.421234 821.262085,111.029587 823.616577,113.750481 
	C825.764893,116.233101 828.412170,118.284004 830.818909,120.506126 
	C821.301819,132.273041 798.318970,134.298340 783.851624,124.914825 
	C769.777222,115.786179 764.640442,97.447403 772.215332,82.218529 
	C779.403320,67.767532 798.736816,58.424183 815.963989,65.902802 
M815.384460,86.264915 
	C811.580688,80.988274 806.319763,79.028366 800.127502,80.340210 
	C795.261169,81.371162 791.659424,84.317459 789.648438,89.710312 
	C798.982300,89.710312 807.671509,89.710312 816.707214,89.710312 
	C816.376343,88.682457 816.087402,87.784859 815.384460,86.264915 
z"/>
<path fill="#739AD9" opacity="1.000000" stroke="none" 
	d="
M659.362366,115.982925 
	C659.307861,107.165024 659.447205,98.837212 659.143005,90.525635 
	C658.844299,82.363327 653.758362,78.994240 645.950562,81.373421 
	C639.365601,83.379990 634.859680,89.360367 634.841858,96.211517 
	C634.816833,105.864906 634.712402,115.520798 634.900574,125.170578 
	C634.968140,128.634033 633.875854,129.952362 630.350708,129.787842 
	C625.410645,129.557266 620.451660,129.729614 615.221069,129.729614 
	C615.221069,107.737206 615.221069,86.331680 615.221069,64.516724 
	C621.452576,64.516724 627.688354,64.516724 634.578857,64.516724 
	C634.712341,67.242081 634.854065,70.134865 635.026245,73.649445 
	C635.799805,72.921608 636.249878,72.550835 636.638794,72.124306 
	C644.384705,63.630047 653.425659,60.986961 663.596436,64.843811 
	C673.564087,68.623642 678.348511,76.659973 678.893860,86.842087 
	C679.587036,99.784882 679.394043,112.773552 679.707458,125.739433 
	C679.781372,128.794205 678.622742,130.049393 675.615967,129.744751 
	C674.627563,129.644592 673.620300,129.730072 672.621704,129.730392 
	C659.361267,129.734604 659.361267,129.734589 659.362366,115.982925 
z"/>
<path fill="#7199D8" opacity="1.000000" stroke="none" 
	d="
M515.007202,86.000000 
	C515.007202,71.207382 515.007202,56.914772 515.007202,42.251526 
	C533.929077,42.251526 552.467346,42.251526 571.348450,42.251526 
	C571.348450,48.076073 571.348450,53.803089 571.348450,59.977516 
	C559.675964,59.977516 548.248718,59.977516 536.380005,59.977516 
	C536.380005,65.618813 536.380005,70.839294 536.380005,76.704376 
	C545.603027,76.704376 554.993958,76.704376 564.695862,76.704376 
	C564.695862,82.715546 564.695862,88.093674 564.695862,93.907822 
	C555.217834,93.907822 545.958923,93.907822 535.933594,93.907822 
	C535.933594,102.069016 535.933655,109.819130 535.933594,117.569237 
	C535.933594,129.721985 535.933533,129.721970 523.587280,129.721802 
	C520.956665,129.721756 518.325989,129.721802 515.007202,129.721802 
	C515.007202,115.000305 515.007202,100.750153 515.007202,86.000000 
z"/>
<path fill="#739AD9" opacity="1.000000" stroke="none" 
	d="
M383.426453,66.570572 
	C386.341492,65.126091 389.216888,64.122795 392.710449,62.903801 
	C392.710449,59.019352 392.710449,54.411896 392.710449,49.399689 
	C399.513947,49.399689 405.873962,49.399689 412.732422,49.399689 
	C412.732422,54.169334 412.732422,58.770195 412.732422,63.913342 
	C417.453918,63.913342 421.703369,63.913342 426.691193,63.913342 
	C426.691193,69.046860 426.880035,73.662102 426.531372,78.236374 
	C426.461884,79.148041 424.400879,80.478203 423.147736,80.616859 
	C420.032013,80.961601 416.852509,80.730270 413.080841,80.730270 
	C413.080841,90.455750 412.875183,99.872421 413.316101,109.258736 
	C413.377899,110.574089 416.478424,112.438705 418.406982,112.801476 
	C420.890015,113.268539 423.609863,112.476624 426.868011,112.165894 
	C426.868011,116.942078 427.033508,121.560631 426.740814,126.149963 
	C426.675232,127.178268 425.024689,128.923386 424.070496,128.946198 
	C417.168671,129.111221 409.961029,130.129120 403.427856,128.524765 
	C395.720276,126.631996 393.387085,119.293983 393.083496,111.924995 
	C392.740723,103.605148 392.928802,95.263382 392.889679,86.931129 
	C392.881195,85.128777 392.888458,83.326355 392.888458,81.827721 
	C392.181061,81.332420 391.933533,81.014610 391.655914,80.985741 
	C383.366455,80.123741 383.365143,80.128258 383.368683,71.511238 
	C383.369324,70.011406 383.380493,68.511581 383.426453,66.570572 
z"/>
<path fill="#739AD9" opacity="1.000000" stroke="none" 
	d="
M861.724243,129.729858 
	C856.321228,129.730042 851.383789,129.730042 846.216553,129.730042 
	C846.216553,107.677910 846.216553,86.280663 846.216553,64.495529 
	C852.542480,64.495529 858.773315,64.495529 865.572876,64.495529 
	C865.572876,68.599030 865.572876,72.811104 865.572876,76.520035 
	C869.820801,72.697578 873.845642,68.758125 878.241821,65.289101 
	C879.818420,64.045036 882.252197,63.717117 884.360718,63.347618 
	C891.994568,62.009872 892.996460,62.903984 892.998108,70.581047 
	C892.998901,74.378883 892.998230,78.176720 892.998230,82.214218 
	C885.424988,82.104973 878.454346,82.832741 872.903870,88.208382 
	C868.388733,92.581276 865.823853,97.730865 865.880066,104.122330 
	C865.944458,111.439430 865.784790,118.759903 865.944397,126.074074 
	C866.007019,128.943863 864.962708,130.070358 861.724243,129.729858 
z"/>
<path fill="#739AD9" opacity="1.000000" stroke="none" 
	d="
M582.105835,84.000343 
	C582.105957,77.229347 582.105957,70.958214 582.105957,64.401451 
	C588.917664,64.401451 595.143616,64.401451 601.698975,64.401451 
	C601.698975,86.112320 601.698975,107.622375 601.698975,129.433578 
	C595.241150,129.433578 589.011108,129.433578 582.105713,129.433578 
	C582.105713,114.311760 582.105713,99.405991 582.105835,84.000343 
z"/>
<path fill="#769CD9" opacity="1.000000" stroke="none" 
	d="
M587.208984,57.745445 
	C585.303528,57.632828 583.869629,57.520500 582.301514,57.397652 
	C582.301514,51.862877 582.301514,46.765648 582.301514,41.266525 
	C588.713501,41.266525 594.933594,41.266525 601.598022,41.266525 
	C601.598022,46.449474 601.598022,51.788788 601.598022,57.745735 
	C596.887878,57.745735 592.284241,57.745735 587.208984,57.745445 
z"/>
<path fill="#FEFFFF" opacity="1.000000" stroke="none" 
	d="
M56.010452,50.903061 
	C96.416008,50.902981 136.323013,50.902981 176.848633,50.902981 
	C176.848633,63.005760 176.868530,74.601738 176.798630,86.197174 
	C176.794495,86.884308 176.242020,87.863869 175.653107,88.207214 
	C167.368637,93.037209 160.401764,99.655373 149.256668,99.270126 
	C123.819984,98.390854 98.329147,98.775246 72.866821,99.122910 
	C65.084900,99.229172 58.629253,97.316551 51.837685,93.412819 
	C44.969082,89.464806 42.307854,85.101959 42.951679,77.315369 
	C43.658752,68.763840 43.112774,60.108696 43.112774,50.903141 
	C47.621155,50.903141 51.566528,50.903141 56.010452,50.903061 
M100.947701,88.990112 
	C105.648109,89.366531 110.345009,89.797867 115.050209,90.099487 
	C118.035912,90.290878 120.696228,89.146416 120.656487,85.937057 
	C120.616280,82.690224 118.108437,81.190178 114.843697,81.211411 
	C111.536499,81.232918 108.223854,81.099678 104.922958,81.245781 
	C100.071129,81.460541 98.802025,83.571930 100.947701,88.990112 
z"/>
<path fill="#FDFEFF" opacity="1.000000" stroke="none" 
	d="
M175.090240,99.154449 
	C175.877426,99.147156 176.783081,99.327393 176.783920,99.511803 
	C176.849533,113.775703 176.844070,128.039932 176.844070,142.595764 
	C155.843094,142.595764 135.304459,142.595764 114.436050,142.595764 
	C114.436050,131.222382 114.436050,119.995293 114.436050,108.179245 
	C116.180466,108.086006 117.927788,107.915894 119.675514,107.911766 
	C130.323715,107.886612 140.981277,107.632027 151.616776,108.000595 
	C157.875076,108.217476 163.415695,107.108955 168.424103,103.270889 
	C170.392197,101.762688 172.656784,100.641411 175.090240,99.154449 
z"/>
<path fill="#FDFEFF" opacity="1.000000" stroke="none" 
	d="
M49.864727,102.128143 
	C56.197124,107.200233 63.080814,108.328529 70.711235,108.020798 
	C82.173149,107.558540 93.667503,107.900482 105.570618,107.900482 
	C105.570618,119.529633 105.570618,130.889145 105.570618,142.571960 
	C84.927269,142.571960 64.369286,142.571960 43.459450,142.571960 
	C43.459450,127.960052 43.459450,113.428833 43.459450,98.434555 
	C45.618492,99.669136 47.590290,100.796646 49.864727,102.128143 
z"/>
<path fill="#FEFEFF" opacity="1.000000" stroke="none" 
	d="
M124.655411,41.963905 
	C114.528023,41.938931 104.865639,41.896324 95.203445,41.827515 
	C94.915413,41.825462 94.629341,41.548481 94.057907,41.252201 
	C94.057907,37.478600 94.057907,33.565239 94.057907,29.275702 
	C104.822960,29.275702 115.409256,29.275702 127.483414,29.275702 
	C126.681290,33.575493 125.900864,37.758976 124.655411,41.963905 
z"/>
<path fill="#FEFEFF" opacity="1.000000" stroke="none" 
	d="
M711.187744,87.459038 
	C716.488708,78.717255 729.743347,79.595810 734.266296,84.136909 
	C740.333252,90.228149 740.850403,102.378876 734.967102,108.711014 
	C727.634460,116.603104 713.542297,113.829765 709.986389,103.657295 
	C708.122681,98.325859 708.050964,92.912605 711.187744,87.459038 
z"/>
<path fill="#FBFCFE" opacity="1.000000" stroke="none" 
	d="
M253.611267,83.488213 
	C252.820053,79.343964 252.332809,75.340378 252.125320,71.322334 
	C251.947067,67.869972 252.088379,64.401115 252.088379,59.788017 
	C257.818573,60.276611 263.222076,60.311008 268.442047,61.307026 
	C273.282806,62.230686 275.970520,66.828964 275.871368,72.252998 
	C275.772064,77.687477 272.985168,81.876266 267.853760,82.783180 
	C263.339630,83.580994 258.649200,83.381592 253.611267,83.488213 
z"/>
<path fill="#FDFEFE" opacity="1.000000" stroke="none" 
	d="
M328.754059,84.695992 
	C334.871368,80.154884 342.468750,79.385712 347.651031,82.748192 
	C354.404663,87.130203 354.913879,93.923035 353.964417,100.916862 
	C353.165558,106.801308 349.883514,111.005638 343.893341,112.635765 
	C337.047821,114.498665 329.999298,111.891029 326.442780,106.213310 
	C322.446228,99.833130 323.280670,91.156509 328.754059,84.695992 
z"/>
<path fill="#FBFCFE" opacity="1.000000" stroke="none" 
	d="
M815.591431,86.576096 
	C816.087402,87.784859 816.376343,88.682457 816.707214,89.710312 
	C807.671509,89.710312 798.982300,89.710312 789.648438,89.710312 
	C791.659424,84.317459 795.261169,81.371162 800.127502,80.340210 
	C806.319763,79.028366 811.580688,80.988274 815.591431,86.576096 
z"/>
<path fill="#76BAFD" opacity="1.000000" stroke="none" 
	d="
M100.687897,88.690308 
	C98.802025,83.571930 100.071129,81.460541 104.922958,81.245781 
	C108.223854,81.099678 111.536499,81.232918 114.843697,81.211411 
	C118.108437,81.190178 120.616280,82.690224 120.656487,85.937057 
	C120.696228,89.146416 118.035912,90.290878 115.050209,90.099487 
	C110.345009,89.797867 105.648109,89.366531 100.687897,88.690308 
z"/>
</svg>